name D:\school\WTK\thesis\model\3dpredictsim\Results\debug_tmt\Pog_s1_tmt_bCst_d02_k800_kc1_t5_ig24_v2.mot
datacolumns 128
datarows 4
range 0.99175845 1.02151120
endheader
time	pelvis_tilt	pelvis_list	pelvis_rotation	pelvis_tx	pelvis_ty	pelvis_tz	hip_flexion_l	hip_adduction_l	hip_rotation_l	hip_flexion_r	hip_adduction_r	hip_rotation_r	knee_angle_l	knee_angle_r	ankle_angle_l	ankle_angle_r	subtalar_angle_l	subtalar_angle_r	tmt_angle_l	tmt_angle_r	mtp_angle_l	mtp_angle_r	lumbar_extension	lumbar_bending	lumbar_rotation	arm_flex_l	arm_add_l	arm_rot_l	arm_flex_r	arm_add_r	arm_rot_r	elbow_flex_l	elbow_flex_r	pro_sup_l	pro_sup_r	glut_med1_l/activation	glut_med2_l/activation	glut_med3_l/activation	glut_min1_l/activation	glut_min2_l/activation	glut_min3_l/activation	semimem_l/activation	semiten_l/activation	bifemlh_l/activation	bifemsh_l/activation	sar_l/activation	add_long_l/activation	add_brev_l/activation	add_mag1_l/activation	add_mag2_l/activation	add_mag3_l/activation	tfl_l/activation	pect_l/activation	grac_l/activation	glut_max1_l/activation	glut_max2_l/activation	glut_max3_l/activation	iliacus_l/activation	psoas_l/activation	quad_fem_l/activation	gem_l/activation	peri_l/activation	rect_fem_l/activation	vas_med_l/activation	vas_int_l/activation	vas_lat_l/activation	med_gas_l/activation	lat_gas_l/activation	soleus_l/activation	tib_post_l/activation	flex_dig_l/activation	flex_hal_l/activation	tib_ant_l/activation	per_brev_l/activation	per_long_l/activation	per_tert_l/activation	ext_dig_l/activation	ext_hal_l/activation	ercspn_l/activation	intobl_l/activation	extobl_l/activation	glut_med1_r/activation	glut_med2_r/activation	glut_med3_r/activation	glut_min1_r/activation	glut_min2_r/activation	glut_min3_r/activation	semimem_r/activation	semiten_r/activation	bifemlh_r/activation	bifemsh_r/activation	sar_r/activation	add_long_r/activation	add_brev_r/activation	add_mag1_r/activation	add_mag2_r/activation	add_mag3_r/activation	tfl_r/activation	pect_r/activation	grac_r/activation	glut_max1_r/activation	glut_max2_r/activation	glut_max3_r/activation	iliacus_r/activation	psoas_r/activation	quad_fem_r/activation	gem_r/activation	peri_r/activation	rect_fem_r/activation	vas_med_r/activation	vas_int_r/activation	vas_lat_r/activation	med_gas_r/activation	lat_gas_r/activation	soleus_r/activation	tib_post_r/activation	flex_dig_r/activation	flex_hal_r/activation	tib_ant_r/activation	per_brev_r/activation	per_long_r/activation	per_tert_r/activation	ext_dig_r/activation	ext_hal_r/activation	ercspn_r/activation	intobl_r/activation	extobl_r/activation	
          0.99175845	         -0.44768109	          1.88858932	          4.60985597	          1.23969806	          0.87527719	         -0.00078105	        -19.40844592	          0.99921149	          6.84872852	         24.77082783	         -1.71532830	         -3.62520588	         -8.71784084	        -14.25462489	        -11.45392477	        -10.48940474	         13.22665069	          7.50408774	          1.68584573	          0.33188612	         28.16428135	         -0.25269575	         -0.09488634	         -3.99675121	         -1.47878723	          3.39701385	        -13.49216323	          7.23250947	        -14.50530085	        -13.44986151	         11.19105588	         21.31168062	         20.51169452	         86.51662706	         86.51662706	          0.22808485	          0.10141993	          0.05826468	          0.23023529	          0.17424194	          0.10119717	          0.05000047	          0.05000004	          0.05000004	          0.05000003	          0.10014772	          0.16790199	          0.06865117	          0.05000080	          0.05000150	          0.05000036	          0.26727524	          0.10243133	          0.05000064	          0.05000163	          0.05000110	          0.05000115	          0.31888826	          0.60049863	          0.05687673	          0.05000052	          0.05821126	          0.30752883	          0.05826507	          0.10178973	          0.07023374	          0.17195110	          0.22717128	          0.16636328	          0.17271927	          0.17996869	          0.21138778	          0.05000000	          0.16081768	          0.19004699	          0.05000002	          0.05000001	          0.05000002	          0.05000000	          0.05000774	          0.05000002	          0.14838879	          0.05826458	          0.13375756	          0.05000499	          0.05000108	          0.05000227	          0.13520867	          0.09084396	          0.11747113	          0.06962850	          0.05000008	          0.05826468	          0.05826467	          0.14119652	          0.11241836	          0.12124279	          0.05000029	          0.05000807	          0.09220155	          0.06789502	          0.10989728	          0.13706887	          0.05871968	          0.06519106	          0.06788932	          0.05000048	          0.05000030	          0.05000000	          0.05000028	          0.05000696	          0.05000042	          0.05826465	          0.05826465	          0.05826464	          0.05000002	          0.05000004	          0.05000020	          0.33240183	          0.14139825	          0.09219610	          0.18460254	          0.29289815	          0.05000028	          0.05000000	          0.14022530	          0.15855200	
          1.00167603	         -0.41925973	          1.83427898	          4.71249069	          1.25533311	          0.87407276	         -0.00056513	        -18.96986746	          0.84216546	          6.55728796	         24.43918264	         -1.50019865	         -3.32157703	        -11.12177322	        -14.81619603	        -12.08743311	        -10.56120517	         14.05018096	          6.94513713	          1.49414862	          0.37626767	         28.45004453	         -0.28075996	          0.11665108	         -3.67983485	         -1.54416817	          3.17793811	        -13.53079980	          7.62093519	        -15.50072705	        -13.45972048	         11.14092482	         21.77430207	         20.59692778	         86.51662706	         86.51662706	          0.19573175	          0.08703385	          0.05000003	          0.19757716	          0.14952629	          0.08684269	          0.05000064	          0.05000003	          0.05000002	          0.05000004	          0.08594211	          0.19170836	          0.29525014	          0.05977945	          0.05000036	          0.05000015	          0.22936311	          0.11349394	          0.05000009	          0.05000011	          0.05000007	          0.05000007	          0.27365499	          0.51531984	          0.05000000	          0.05000007	          0.05000006	          0.26390686	          0.05000046	          0.08735158	          0.09344573	          0.14756039	          0.19494776	          0.14276518	          0.14821961	          0.15444073	          0.18140312	          0.07653555	          0.13800623	          0.16308944	          0.05000019	          0.15656910	          0.05000027	          0.05000000	          0.08690067	          0.05863170	          0.19202731	          0.05000019	          0.12963879	          0.05000008	          0.05000036	          0.05000014	          0.11602976	          0.07795805	          0.10080824	          0.05975196	          0.05826525	          0.05000009	          0.05000005	          0.18168462	          0.21590265	          0.15617268	          0.05000021	          0.05000015	          0.07912315	          0.05826461	          0.10565576	          0.15971206	          0.05039054	          0.06789522	          0.05826474	          0.05651390	          0.05000028	          0.05826466	          0.25473247	          0.24590770	          0.22385598	          0.05000000	          0.05000000	          0.05000000	          0.13478648	          0.09683838	          0.05000003	          0.49782014	          0.12134136	          0.07911838	          0.27618382	          0.34639093	          0.35623072	          0.05000000	          0.12033479	          0.13606191	
          1.01159362	         -0.38665156	          1.76364667	          4.79765543	          1.27107512	          0.87261593	         -0.00035297	        -18.43339271	          0.68643860	          6.25211227	         23.95393313	         -1.26107441	         -2.96112516	        -13.72506449	        -15.77079951	        -12.48400147	        -10.22277464	         14.80876190	          6.31584851	          1.23322317	          0.36975065	         28.02805549	         -0.32102166	          0.33243574	         -3.33670745	         -1.59977995	          2.92249584	        -13.58188140	          8.00414838	        -16.46636598	        -13.48618611	         11.16307267	         22.23305707	         20.63561958	         86.51662706	         86.51662706	          0.16796784	          0.07468838	          0.05000002	          0.16955149	          0.12831647	          0.07452434	          0.05000047	          0.05000023	          0.05998631	          0.05000001	          0.07375151	          0.17871789	          0.49668919	          0.20464591	          0.13505765	          0.15155470	          0.19682871	          0.09739529	          0.05000116	          0.05000127	          0.05000157	          0.06710309	          0.23483791	          0.44222338	          0.05329931	          0.05000016	          0.05000002	          0.22647252	          0.06522562	          0.07496118	          0.08019079	          0.12662942	          0.16729505	          0.12251440	          0.12719516	          0.13253384	          0.15567169	          0.15003901	          0.11843049	          0.13995573	          0.05000059	          0.22004828	          0.17927144	          0.07027895	          0.08356491	          0.05031499	          0.29787776	          0.28077366	          0.46102186	          0.08335948	          0.05000007	          0.31887155	          0.09957131	          0.06690001	          0.08650893	          0.05127635	          0.05000055	          0.06789540	          0.10200426	          0.15591328	          0.18527759	          0.16532913	          0.05000001	          0.06789553	          0.06789997	          0.05000001	          0.18710615	          0.21577055	          0.05826465	          0.05826457	          0.05000009	          0.05000003	          0.24848314	          0.05000001	          0.21859953	          0.21102654	          0.19210278	          0.07911809	          0.09076285	          0.07845794	          0.14636041	          0.11601688	          0.11373485	          0.42720595	          0.10412949	          0.06789573	          0.23700804	          0.29725650	          0.30570055	          0.05000009	          0.10326569	          0.11676197	
          1.02151120	         -0.35404108	          1.67729867	          4.86138683	          1.28664303	          0.87110508	         -0.00014858	        -17.77772317	          0.53388429	          5.94851665	         23.33613009	         -0.98539583	         -2.57235637	        -16.49285592	        -16.75295937	        -12.63552770	         -9.24496019	         15.48168391	          5.69628475	          0.96687175	          0.80200049	         26.62718286	         -0.11666625	          0.52974109	         -2.97118024	         -1.64513637	          2.68122279	        -13.63260252	          8.39434257	        -17.33296583	        -13.52229069	         11.28291355	         22.64322962	         20.57532650	         86.51662706	         86.51662706	          0.14414215	          0.06409409	          0.05004504	          0.14550116	          0.11011521	          0.06395333	          0.06235394	          0.05000010	          0.05147769	          0.05000001	          0.06329012	          0.21373474	          0.46623414	          0.36471380	          0.14430105	          0.13005722	          0.16890923	          0.08358015	          0.05000024	          0.05005285	          0.05827656	          0.10743549	          0.20152691	          0.37949546	          0.07228936	          0.05827050	          0.05001879	          0.19434814	          0.09054198	          0.09692734	          0.09187207	          0.10866745	          0.14356479	          0.10513613	          0.12055569	          0.11373439	          0.13359019	          0.20080214	          0.10163151	          0.12010346	          0.05376052	          0.26624935	          0.25224522	          0.12181899	          0.07171154	          0.05106670	          0.33342996	          0.45248890	          0.62156380	          0.20435069	          0.40948317	          0.45288110	          0.08544745	          0.05741048	          0.07423792	          0.05446237	          0.05000006	          0.05826466	          0.08753529	          0.13379750	          0.15899658	          0.14187775	          0.05000211	          0.05826479	          0.05826860	          0.32463259	          0.25980977	          0.18516424	          0.05000001	          0.05000000	          0.10742612	          0.10743541	          0.21323669	          0.05000002	          0.35710864	          0.34998205	          0.31098714	          0.06789546	          0.07788846	          0.06789545	          0.18351241	          0.15085792	          0.11934226	          0.37937852	          0.08935906	          0.05826495	          0.20338923	          0.25509163	          0.26233796	          0.05000000	          0.08861778	          0.10019966	
